<svg width="30" height="25" viewBox="0 0 30 25" fill="none" xmlns="http://www.w3.org/2000/svg">
<path fill-rule="evenodd" clip-rule="evenodd" d="M29.849 19.5159C29.539 20.6039 28.829 21.3669 27.852 21.8789C26.161 22.7669 24.471 23.6589 22.751 24.4899C21.633 25.0279 20.429 25.0569 19.205 24.8489C17.074 24.4819 14.937 24.1539 12.803 23.8049C12.489 23.7549 12.17 23.7029 11.869 23.6049C11.21 23.3869 10.591 23.4939 9.99198 23.7929C9.70698 23.9349 9.43298 24.0979 9.16898 24.2739C8.94198 24.4249 8.72098 24.5059 8.46698 24.3719C8.21698 24.2359 8.13798 24.0149 8.15198 23.7389C8.22298 22.3389 8.28698 20.9389 8.35498 19.5399C8.40598 18.4689 8.46098 17.3989 8.51098 16.3259C8.53898 15.7349 8.67598 15.5809 9.26098 15.5089C10.45 15.3619 11.638 15.2189 12.826 15.0689C14.239 14.8889 15.623 15.0679 16.984 15.4319C18.539 15.8459 20.089 16.2909 21.629 16.7579C21.97 16.8619 22.301 17.0689 22.574 17.2999C23.22 17.8529 23.239 18.7079 22.653 19.3279C22.516 19.4709 22.352 19.5889 22.212 19.7769C22.787 19.6399 23.367 19.5259 23.935 19.3659C25.145 19.0239 26.309 18.5619 27.413 17.9519C28.403 17.4049 29.391 17.7749 29.8 18.8149C29.808 18.8379 29.833 18.8569 29.851 18.8779C29.849 19.0899 29.849 19.3039 29.849 19.5159ZM9.39098 22.7469C9.46898 22.7209 9.51598 22.7119 9.55898 22.6919C10.434 22.2949 11.329 22.1689 12.262 22.4769C12.426 22.5319 12.599 22.5619 12.77 22.5899C15.019 22.9569 17.272 23.3039 19.516 23.6909C20.658 23.8869 21.722 23.7209 22.746 23.2039C23.737 22.7039 24.743 22.2319 25.727 21.7199C26.383 21.3759 27.042 21.0189 27.647 20.5909C28.03 20.3199 28.331 19.9219 28.633 19.5529C28.773 19.3839 28.723 19.1639 28.548 19.0059C28.376 18.8499 28.215 18.8599 28.003 18.9799C27.549 19.2349 27.079 19.4659 26.601 19.6679C24.173 20.6859 21.675 21.3189 19.015 20.9669C18 20.8349 17.038 20.5239 16.139 20.0339C15.791 19.8439 15.561 19.3839 15.642 19.0619C15.723 18.7359 16.122 18.4589 16.541 18.4609C16.771 18.4619 17.005 18.4749 17.231 18.5159C17.906 18.6379 18.573 18.7949 19.251 18.9019C19.939 19.0079 20.637 19.0719 21.319 18.8529C21.572 18.7719 21.847 18.6379 21.851 18.3449C21.854 18.0459 21.556 17.9649 21.318 17.8949C20.096 17.5299 18.88 17.1539 17.651 16.8199C16.329 16.4589 14.993 16.1009 13.602 16.2159C12.352 16.3209 11.105 16.4799 9.85798 16.6299C9.78698 16.6389 9.68598 16.7929 9.67898 16.8859C9.63098 17.5799 9.60498 18.2769 9.57098 18.9709C9.51398 20.2149 9.45398 21.4609 9.39098 22.7469Z" fill="white"/>
<path fill-rule="evenodd" clip-rule="evenodd" d="M0.151978 23.7499C0.248978 23.1329 0.351978 22.5149 0.438978 21.8949C0.720978 19.9069 0.993978 17.9169 1.27798 15.9289C1.34898 15.4289 1.55598 15.2599 2.05798 15.2839C3.71798 15.3599 5.37698 15.4409 7.03698 15.5249C7.48598 15.5469 7.71398 15.7939 7.68498 16.2369C7.56498 18.0679 7.43898 19.8989 7.31398 21.7289C7.26898 22.3949 7.22298 23.0599 7.17598 23.7239C7.14698 24.1139 6.93698 24.3149 6.54398 24.3319C4.67198 24.4129 2.79898 24.4859 0.926978 24.5749C0.565978 24.5939 0.306978 24.4859 0.151978 24.1549C0.151978 24.0209 0.151978 23.8849 0.151978 23.7499ZM1.43398 23.3629C2.35098 23.3239 3.24198 23.2869 4.14198 23.2499C4.36198 21.0209 4.57798 18.8329 4.79798 16.6139C3.98698 16.5739 3.20198 16.5349 2.39898 16.4949C2.07698 18.7929 1.75898 21.0559 1.43398 23.3629ZM6.02598 23.1669C6.17098 21.0039 6.31498 18.8619 6.45998 16.7009C6.36298 16.6889 6.29698 16.6799 6.23198 16.6769C6.15698 16.6739 6.08198 16.6759 5.98498 16.6759C5.77098 18.8549 5.55898 21.0099 5.34798 23.1669C5.59898 23.1669 5.79898 23.1669 6.02598 23.1669Z" fill="white"/>
<path fill-rule="evenodd" clip-rule="evenodd" d="M21.593 0.0258973C25.553 0.0358973 28.933 3.3779 28.908 7.2559C28.884 11.1829 25.509 14.4859 21.542 14.4679C17.58 14.4499 14.237 11.1279 14.247 7.2199C14.257 3.3189 17.63 0.0168973 21.593 0.0258973ZM21.574 13.2949C21.91 13.2639 22.249 13.2529 22.582 13.1969C24.811 12.8189 26.448 11.6309 27.274 9.5149C28.114 7.3589 27.854 5.2709 26.383 3.4529C24.881 1.5929 22.853 0.960897 20.525 1.3049C17.337 1.7759 15.017 4.6159 15.498 8.0869C15.93 11.1869 18.442 13.2899 21.574 13.2949Z" fill="white"/>
<path fill-rule="evenodd" clip-rule="evenodd" d="M22.131 4.1189C22.49 4.1499 22.818 4.1639 23.14 4.2069C23.502 4.2549 23.733 4.5389 23.694 4.8629C23.653 5.2089 23.367 5.4169 22.985 5.3779C22.774 5.3559 22.563 5.3329 22.352 5.3119C22.294 5.3069 22.237 5.3109 22.131 5.3109C22.131 5.7629 22.158 6.2049 22.123 6.6419C22.092 7.0509 22.194 7.2779 22.602 7.4729C22.984 7.6549 23.336 7.9819 23.596 8.3259C24.108 8.9999 23.99 9.8259 23.339 10.3709C23.063 10.6019 22.73 10.7809 22.399 10.9259C22.182 11.0209 22.104 11.1259 22.128 11.3499C22.147 11.5219 22.137 11.6979 22.131 11.8719C22.116 12.2369 21.872 12.4929 21.542 12.4979C21.209 12.5029 20.961 12.2569 20.939 11.8869C20.928 11.6869 20.937 11.4849 20.937 11.2879C20.565 11.2489 20.219 11.2249 19.88 11.1709C19.599 11.1259 19.439 10.9379 19.408 10.6559C19.367 10.2579 19.688 9.9659 20.106 10.0109C20.364 10.0389 20.623 10.0679 20.935 10.1029C20.935 9.7359 20.904 9.3989 20.941 9.0689C21.01 8.4769 20.903 8.0589 20.269 7.7859C19.914 7.6319 19.62 7.2399 19.401 6.8899C19.025 6.2929 19.123 5.6219 19.649 5.1509C19.965 4.8679 20.361 4.6679 20.74 4.4629C20.882 4.3859 20.947 4.3219 20.938 4.1619C20.927 3.9699 20.926 3.7749 20.938 3.5829C20.961 3.2369 21.217 2.9899 21.533 2.9909C21.861 2.9919 22.116 3.2559 22.13 3.6129C22.136 3.7759 22.131 3.9389 22.131 4.1189ZM22.148 8.4819C22.148 8.9389 22.148 9.3549 22.148 9.7789C22.509 9.6299 22.78 9.3229 22.751 9.0669C22.714 8.7309 22.451 8.6069 22.148 8.4819ZM20.916 5.6119C20.597 5.8109 20.326 5.9939 20.352 6.3479C20.373 6.6539 20.626 6.7829 20.916 6.8839C20.916 6.4599 20.916 6.0639 20.916 5.6119Z" fill="white"/>
</svg>
